<svg version="1.1" id="Layer_1" xmlns="http://www.w3.org/2000/svg" xmlns:xlink="http://www.w3.org/1999/xlink" x="0" y="0" viewBox="0 0 480 499.73" xml:space="preserve"><style>.st0{fill:none;stroke:#4f8552;stroke-width:.25;stroke-miterlimit:10;stroke-opacity:.5}.st0,.st1{clip-path:url(#SVGID_2_)}.st2{fill:none;stroke:#4f8552;stroke-width:.25;stroke-miterlimit:10;stroke-opacity:.5}</style><defs><path id="SVGID_3_" d="M-.19 0H480.2v499.46H-.19z"/></defs><clipPath id="SVGID_2_"><use xlink:href="#SVGID_3_" overflow="visible"/></clipPath><circle class="st0" cx="672.9" cy="582.93" r="42"/><circle class="st0" cx="672.9" cy="582.93" r="48.05"/><circle class="st0" cx="576.8" cy="582.93" r="42"/><circle class="st0" cx="576.8" cy="582.93" r="48.05"/><circle class="st0" cx="480.7" cy="582.93" r="42"/><circle class="st0" cx="480.7" cy="582.93" r="48.05"/><circle class="st0" cx="384.59" cy="582.93" r="42"/><circle class="st0" cx="384.59" cy="582.93" r="48.05"/><circle class="st0" cx="288.49" cy="582.93" r="42"/><circle class="st0" cx="288.49" cy="582.93" r="48.05"/><circle class="st0" cx="192.39" cy="582.93" r="42"/><circle class="st0" cx="192.39" cy="582.93" r="48.05"/><circle class="st0" cx="96.28" cy="582.93" r="42"/><circle class="st0" cx="96.28" cy="582.93" r="48.05"/><circle class="st0" cx=".18" cy="582.93" r="42"/><circle class="st0" cx=".18" cy="582.93" r="48.05"/><circle class="st0" cx="-95.92" cy="582.93" r="42"/><circle class="st0" cx="-95.92" cy="582.93" r="48.05"/><circle class="st0" cx="-192.02" cy="582.93" r="42"/><circle class="st0" cx="-192.02" cy="582.93" r="48.05"/><circle class="st0" cx="-288.13" cy="582.93" r="42"/><circle class="st0" cx="-288.13" cy="582.93" r="48.05"/><circle class="st0" cx="-384.23" cy="582.93" r="42"/><circle class="st0" cx="-384.23" cy="582.93" r="48.05"/><circle class="st0" cx="-480.33" cy="582.93" r="42"/><circle class="st0" cx="-480.33" cy="582.93" r="48.05"/><path class="st0" d="M730.99 582.77H-601.49"/><g class="st1"><circle class="st2" cx="624.72" cy="499.62" r="42"/><circle class="st2" cx="624.72" cy="499.62" r="48.05"/><circle class="st2" cx="528.62" cy="499.62" r="42"/><circle class="st2" cx="528.62" cy="499.62" r="48.05"/><circle class="st2" cx="432.51" cy="499.62" r="42"/><circle class="st2" cx="432.51" cy="499.62" r="48.05"/><circle class="st2" cx="336.41" cy="499.62" r="42"/><circle class="st2" cx="336.41" cy="499.62" r="48.05"/><circle class="st2" cx="240.31" cy="499.62" r="42"/><circle class="st2" cx="240.31" cy="499.62" r="48.05"/><circle class="st2" cx="144.2" cy="499.62" r="42"/><circle class="st2" cx="144.2" cy="499.62" r="48.05"/><circle class="st2" cx="48.1" cy="499.62" r="42"/><circle class="st2" cx="48.1" cy="499.62" r="48.05"/><circle class="st2" cx="-48" cy="499.62" r="42"/><circle class="st2" cx="-48" cy="499.62" r="48.05"/><circle class="st2" cx="-144.11" cy="499.62" r="42"/><circle class="st2" cx="-144.11" cy="499.62" r="48.05"/><circle class="st2" cx="-240.21" cy="499.62" r="42"/><circle class="st2" cx="-240.21" cy="499.62" r="48.05"/><circle class="st2" cx="-336.31" cy="499.62" r="42"/><circle class="st2" cx="-336.31" cy="499.62" r="48.05"/><circle class="st2" cx="-432.42" cy="499.62" r="42"/><circle class="st2" cx="-432.42" cy="499.62" r="48.05"/><circle class="st2" cx="-528.52" cy="499.62" r="42"/><circle class="st2" cx="-528.52" cy="499.62" r="48.05"/><path class="st2" d="M682.81 499.46H-649.67"/></g><circle class="st0" cx="672.97" cy="416.45" r="42"/><circle class="st0" cx="672.97" cy="416.45" r="48.05"/><circle class="st0" cx="576.87" cy="416.45" r="42"/><circle class="st0" cx="576.87" cy="416.45" r="48.05"/><circle class="st0" cx="480.77" cy="416.45" r="42"/><circle class="st0" cx="480.77" cy="416.45" r="48.05"/><circle class="st0" cx="384.66" cy="416.45" r="42"/><circle class="st0" cx="384.66" cy="416.45" r="48.05"/><circle class="st0" cx="288.56" cy="416.45" r="42"/><circle class="st0" cx="288.56" cy="416.45" r="48.05"/><circle class="st0" cx="192.46" cy="416.45" r="42"/><circle class="st0" cx="192.46" cy="416.45" r="48.05"/><circle class="st0" cx="96.35" cy="416.45" r="42"/><circle class="st0" cx="96.35" cy="416.45" r="48.05"/><circle class="st0" cx=".25" cy="416.45" r="42"/><circle class="st0" cx=".25" cy="416.45" r="48.05"/><circle class="st0" cx="-95.85" cy="416.45" r="42"/><circle class="st0" cx="-95.85" cy="416.45" r="48.05"/><circle class="st0" cx="-191.96" cy="416.45" r="42"/><circle class="st0" cx="-191.96" cy="416.45" r="48.05"/><circle class="st0" cx="-288.06" cy="416.45" r="42"/><circle class="st0" cx="-288.06" cy="416.45" r="48.05"/><circle class="st0" cx="-384.16" cy="416.45" r="42"/><circle class="st0" cx="-384.16" cy="416.45" r="48.05"/><circle class="st0" cx="-480.27" cy="416.45" r="42"/><circle class="st0" cx="-480.27" cy="416.45" r="48.05"/><path class="st0" d="M731.06 416.29H-601.42"/><g class="st1"><circle class="st2" cx="624.79" cy="333.14" r="42"/><circle class="st2" cx="624.79" cy="333.14" r="48.05"/><circle class="st2" cx="528.68" cy="333.14" r="42"/><circle class="st2" cx="528.68" cy="333.14" r="48.05"/><circle class="st2" cx="432.58" cy="333.14" r="42"/><circle class="st2" cx="432.58" cy="333.14" r="48.05"/><circle class="st2" cx="336.48" cy="333.14" r="42"/><circle class="st2" cx="336.48" cy="333.14" r="48.05"/><circle class="st2" cx="240.37" cy="333.14" r="42"/><circle class="st2" cx="240.37" cy="333.14" r="48.05"/><circle class="st2" cx="144.27" cy="333.14" r="42"/><circle class="st2" cx="144.27" cy="333.14" r="48.05"/><circle class="st2" cx="48.17" cy="333.14" r="42"/><circle class="st2" cx="48.17" cy="333.14" r="48.05"/><circle class="st2" cx="-47.94" cy="333.14" r="42"/><circle class="st2" cx="-47.94" cy="333.14" r="48.05"/><circle class="st2" cx="-144.04" cy="333.14" r="42"/><circle class="st2" cx="-144.04" cy="333.14" r="48.05"/><circle class="st2" cx="-240.14" cy="333.14" r="42"/><circle class="st2" cx="-240.14" cy="333.14" r="48.05"/><circle class="st2" cx="-336.25" cy="333.14" r="42"/><circle class="st2" cx="-336.25" cy="333.14" r="48.05"/><circle class="st2" cx="-432.35" cy="333.14" r="42"/><circle class="st2" cx="-432.35" cy="333.14" r="48.05"/><circle class="st2" cx="-528.45" cy="333.14" r="42"/><circle class="st2" cx="-528.45" cy="333.14" r="48.05"/><path class="st2" d="M682.87 332.98H-649.6"/></g><circle class="st0" cx="672.9" cy="249.95" r="42"/><circle class="st0" cx="672.9" cy="249.95" r="48.05"/><circle class="st0" cx="576.8" cy="249.95" r="42"/><circle class="st0" cx="576.8" cy="249.95" r="48.05"/><circle class="st0" cx="480.7" cy="249.95" r="42"/><circle class="st0" cx="480.7" cy="249.95" r="48.05"/><circle class="st0" cx="384.59" cy="249.95" r="42"/><circle class="st0" cx="384.59" cy="249.95" r="48.05"/><circle class="st0" cx="288.49" cy="249.95" r="42"/><circle class="st0" cx="288.49" cy="249.95" r="48.05"/><circle class="st0" cx="192.39" cy="249.95" r="42"/><circle class="st0" cx="192.39" cy="249.95" r="48.05"/><circle class="st0" cx="96.28" cy="249.95" r="42"/><circle class="st0" cx="96.28" cy="249.95" r="48.05"/><circle class="st0" cx=".18" cy="249.95" r="42"/><circle class="st0" cx=".18" cy="249.95" r="48.05"/><circle class="st0" cx="-95.92" cy="249.95" r="42"/><circle class="st0" cx="-95.92" cy="249.95" r="48.05"/><circle class="st0" cx="-192.02" cy="249.95" r="42"/><circle class="st0" cx="-192.02" cy="249.95" r="48.05"/><circle class="st0" cx="-288.13" cy="249.95" r="42"/><circle class="st0" cx="-288.13" cy="249.95" r="48.05"/><circle class="st0" cx="-384.23" cy="249.95" r="42"/><circle class="st0" cx="-384.23" cy="249.95" r="48.05"/><circle class="st0" cx="-480.33" cy="249.95" r="42"/><circle class="st0" cx="-480.33" cy="249.95" r="48.05"/><g class="st1"><circle class="st2" cx="624.72" cy="166.64" r="42"/><circle class="st2" cx="624.72" cy="166.64" r="48.05"/><circle class="st2" cx="528.62" cy="166.64" r="42"/><circle class="st2" cx="528.62" cy="166.64" r="48.05"/><circle class="st2" cx="432.51" cy="166.64" r="42"/><circle class="st2" cx="432.51" cy="166.64" r="48.05"/><circle class="st2" cx="336.41" cy="166.64" r="42"/><circle class="st2" cx="336.41" cy="166.64" r="48.05"/><circle class="st2" cx="240.31" cy="166.64" r="42"/><circle class="st2" cx="240.31" cy="166.64" r="48.05"/><circle class="st2" cx="144.2" cy="166.64" r="42"/><circle class="st2" cx="144.2" cy="166.64" r="48.05"/><circle class="st2" cx="48.1" cy="166.64" r="42"/><circle class="st2" cx="48.1" cy="166.64" r="48.05"/><circle class="st2" cx="-48" cy="166.64" r="42"/><circle class="st2" cx="-48" cy="166.64" r="48.05"/><circle class="st2" cx="-144.11" cy="166.64" r="42"/><circle class="st2" cx="-144.11" cy="166.64" r="48.05"/><circle class="st2" cx="-240.21" cy="166.64" r="42"/><circle class="st2" cx="-240.21" cy="166.64" r="48.05"/><circle class="st2" cx="-336.31" cy="166.64" r="42"/><circle class="st2" cx="-336.31" cy="166.64" r="48.05"/><circle class="st2" cx="-432.42" cy="166.64" r="42"/><circle class="st2" cx="-432.42" cy="166.64" r="48.05"/><circle class="st2" cx="-528.52" cy="166.64" r="42"/><circle class="st2" cx="-528.52" cy="166.64" r="48.05"/><path class="st2" d="M682.81 166.48H-649.67"/></g><circle class="st0" cx="672.97" cy="83.47" r="42"/><circle class="st0" cx="672.97" cy="83.47" r="48.05"/><circle class="st0" cx="576.87" cy="83.47" r="42"/><circle class="st0" cx="576.87" cy="83.47" r="48.05"/><circle class="st0" cx="480.77" cy="83.47" r="42"/><circle class="st0" cx="480.77" cy="83.47" r="48.05"/><circle class="st0" cx="384.66" cy="83.47" r="42"/><circle class="st0" cx="384.66" cy="83.47" r="48.05"/><circle class="st0" cx="288.56" cy="83.47" r="42"/><circle class="st0" cx="288.56" cy="83.47" r="48.05"/><circle class="st0" cx="192.46" cy="83.47" r="42"/><circle class="st0" cx="192.46" cy="83.47" r="48.05"/><circle class="st0" cx="96.35" cy="83.47" r="42"/><circle class="st0" cx="96.35" cy="83.47" r="48.05"/><circle class="st0" cx=".25" cy="83.47" r="42"/><circle class="st0" cx=".25" cy="83.47" r="48.05"/><circle class="st0" cx="-95.85" cy="83.47" r="42"/><circle class="st0" cx="-95.85" cy="83.47" r="48.05"/><circle class="st0" cx="-191.96" cy="83.47" r="42"/><circle class="st0" cx="-191.96" cy="83.47" r="48.05"/><circle class="st0" cx="-288.06" cy="83.47" r="42"/><circle class="st0" cx="-288.06" cy="83.47" r="48.05"/><circle class="st0" cx="-384.16" cy="83.47" r="42"/><circle class="st0" cx="-384.16" cy="83.47" r="48.05"/><circle class="st0" cx="-480.27" cy="83.47" r="42"/><circle class="st0" cx="-480.27" cy="83.47" r="48.05"/><path class="st0" d="M731.06 83.31H-601.42"/><g class="st1"><circle class="st2" cx="624.79" cy=".16" r="42"/><circle class="st2" cx="624.79" cy=".16" r="48.05"/><circle class="st2" cx="528.68" cy=".16" r="42"/><circle class="st2" cx="528.68" cy=".16" r="48.05"/><circle class="st2" cx="432.58" cy=".16" r="42"/><circle class="st2" cx="432.58" cy=".16" r="48.05"/><circle class="st2" cx="336.48" cy=".16" r="42"/><circle class="st2" cx="336.48" cy=".16" r="48.05"/><circle class="st2" cx="240.37" cy=".16" r="42"/><circle class="st2" cx="240.37" cy=".16" r="48.05"/><circle class="st2" cx="144.27" cy=".16" r="42"/><circle class="st2" cx="144.27" cy=".16" r="48.05"/><circle class="st2" cx="48.17" cy=".16" r="42"/><circle class="st2" cx="48.17" cy=".16" r="48.05"/><circle class="st2" cx="-47.94" cy=".16" r="42"/><circle class="st2" cx="-47.94" cy=".16" r="48.05"/><circle class="st2" cx="-144.04" cy=".16" r="42"/><circle class="st2" cx="-144.04" cy=".16" r="48.05"/><circle class="st2" cx="-240.14" cy=".16" r="42"/><circle class="st2" cx="-240.14" cy=".16" r="48.05"/><circle class="st2" cx="-336.25" cy=".16" r="42"/><circle class="st2" cx="-336.25" cy=".16" r="48.05"/><circle class="st2" cx="-432.35" cy=".16" r="42"/><circle class="st2" cx="-432.35" cy=".16" r="48.05"/><circle class="st2" cx="-528.45" cy=".16" r="42"/><circle class="st2" cx="-528.45" cy=".16" r="48.05"/><path class="st2" d="M682.87 0H-649.6"/></g><circle class="st0" cx="672.9" cy="-83" r="42"/><circle class="st0" cx="672.9" cy="-83" r="48.05"/><circle class="st0" cx="576.8" cy="-83" r="42"/><circle class="st0" cx="576.8" cy="-83" r="48.05"/><circle class="st0" cx="480.7" cy="-83" r="42"/><circle class="st0" cx="480.7" cy="-83" r="48.05"/><circle class="st0" cx="384.59" cy="-83" r="42"/><circle class="st0" cx="384.59" cy="-83" r="48.05"/><circle class="st0" cx="288.49" cy="-83" r="42"/><circle class="st0" cx="288.49" cy="-83" r="48.05"/><circle class="st0" cx="192.39" cy="-83" r="42"/><circle class="st0" cx="192.39" cy="-83" r="48.05"/><circle class="st0" cx="96.28" cy="-83" r="42"/><circle class="st0" cx="96.28" cy="-83" r="48.05"/><circle class="st0" cx=".18" cy="-83" r="42"/><circle class="st0" cx=".18" cy="-83" r="48.05"/><circle class="st0" cx="-95.92" cy="-83" r="42"/><circle class="st0" cx="-95.92" cy="-83" r="48.05"/><circle class="st0" cx="-192.02" cy="-83" r="42"/><circle class="st0" cx="-192.02" cy="-83" r="48.05"/><circle class="st0" cx="-288.13" cy="-83" r="42"/><circle class="st0" cx="-288.13" cy="-83" r="48.05"/><circle class="st0" cx="-384.23" cy="-83" r="42"/><circle class="st0" cx="-384.23" cy="-83" r="48.05"/><circle class="st0" cx="-480.33" cy="-83" r="42"/><circle class="st0" cx="-480.33" cy="-83" r="48.05"/><g class="st1"><circle class="st2" cx="624.72" cy="-166.31" r="42"/><circle class="st2" cx="624.72" cy="-166.31" r="48.05"/><circle class="st2" cx="528.62" cy="-166.31" r="42"/><circle class="st2" cx="528.62" cy="-166.31" r="48.05"/><circle class="st2" cx="432.51" cy="-166.31" r="42"/><circle class="st2" cx="432.51" cy="-166.31" r="48.05"/><circle class="st2" cx="336.41" cy="-166.31" r="42"/><circle class="st2" cx="336.41" cy="-166.31" r="48.05"/><circle class="st2" cx="240.31" cy="-166.31" r="42"/><circle class="st2" cx="240.31" cy="-166.31" r="48.05"/><circle class="st2" cx="144.2" cy="-166.31" r="42"/><circle class="st2" cx="144.2" cy="-166.31" r="48.05"/><circle class="st2" cx="48.1" cy="-166.31" r="42"/><circle class="st2" cx="48.1" cy="-166.31" r="48.05"/><circle class="st2" cx="-48" cy="-166.31" r="42"/><circle class="st2" cx="-48" cy="-166.31" r="48.05"/><circle class="st2" cx="-144.11" cy="-166.31" r="42"/><circle class="st2" cx="-144.11" cy="-166.31" r="48.05"/><circle class="st2" cx="-240.21" cy="-166.31" r="42"/><circle class="st2" cx="-240.21" cy="-166.31" r="48.05"/><circle class="st2" cx="-336.31" cy="-166.31" r="42"/><circle class="st2" cx="-336.31" cy="-166.31" r="48.05"/><circle class="st2" cx="-432.42" cy="-166.31" r="42"/><circle class="st2" cx="-432.42" cy="-166.31" r="48.05"/><circle class="st2" cx="-528.52" cy="-166.31" r="42"/><circle class="st2" cx="-528.52" cy="-166.31" r="48.05"/><path class="st2" d="M682.81-166.47H-649.67"/></g><circle class="st0" cx="672.97" cy="-249.48" r="42"/><circle class="st0" cx="672.97" cy="-249.48" r="48.05"/><circle class="st0" cx="576.87" cy="-249.48" r="42"/><circle class="st0" cx="576.87" cy="-249.48" r="48.05"/><circle class="st0" cx="480.77" cy="-249.48" r="42"/><circle class="st0" cx="480.77" cy="-249.48" r="48.05"/><circle class="st0" cx="384.66" cy="-249.48" r="42"/><circle class="st0" cx="384.66" cy="-249.48" r="48.05"/><circle class="st0" cx="288.56" cy="-249.48" r="42"/><circle class="st0" cx="288.56" cy="-249.48" r="48.05"/><circle class="st0" cx="192.46" cy="-249.48" r="42"/><circle class="st0" cx="192.46" cy="-249.48" r="48.05"/><circle class="st0" cx="96.35" cy="-249.48" r="42"/><circle class="st0" cx="96.35" cy="-249.48" r="48.05"/><circle class="st0" cx=".25" cy="-249.48" r="42"/><circle class="st0" cx=".25" cy="-249.48" r="48.05"/><circle class="st0" cx="-95.85" cy="-249.48" r="42"/><circle class="st0" cx="-95.85" cy="-249.48" r="48.05"/><circle class="st0" cx="-191.96" cy="-249.48" r="42"/><circle class="st0" cx="-191.96" cy="-249.48" r="48.05"/><circle class="st0" cx="-288.06" cy="-249.48" r="42"/><circle class="st0" cx="-288.06" cy="-249.48" r="48.05"/><circle class="st0" cx="-384.16" cy="-249.48" r="42"/><circle class="st0" cx="-384.16" cy="-249.48" r="48.05"/><circle class="st0" cx="-480.27" cy="-249.48" r="42"/><circle class="st0" cx="-480.27" cy="-249.48" r="48.05"/><path class="st0" d="M731.06-249.64H-601.42"/><g class="st1"><circle class="st2" cx="624.79" cy="-332.79" r="42"/><circle class="st2" cx="624.79" cy="-332.79" r="48.05"/><circle class="st2" cx="528.68" cy="-332.79" r="42"/><circle class="st2" cx="528.68" cy="-332.79" r="48.05"/><circle class="st2" cx="432.58" cy="-332.79" r="42"/><circle class="st2" cx="432.58" cy="-332.79" r="48.05"/><circle class="st2" cx="336.48" cy="-332.79" r="42"/><circle class="st2" cx="336.48" cy="-332.79" r="48.05"/><circle class="st2" cx="240.37" cy="-332.79" r="42"/><circle class="st2" cx="240.37" cy="-332.79" r="48.05"/><circle class="st2" cx="144.27" cy="-332.79" r="42"/><circle class="st2" cx="144.27" cy="-332.79" r="48.05"/><circle class="st2" cx="48.17" cy="-332.79" r="42"/><circle class="st2" cx="48.17" cy="-332.79" r="48.05"/><circle class="st2" cx="-47.94" cy="-332.79" r="42"/><circle class="st2" cx="-47.94" cy="-332.79" r="48.05"/><circle class="st2" cx="-144.04" cy="-332.79" r="42"/><circle class="st2" cx="-144.04" cy="-332.79" r="48.05"/><circle class="st2" cx="-240.14" cy="-332.79" r="42"/><circle class="st2" cx="-240.14" cy="-332.79" r="48.05"/><circle class="st2" cx="-336.25" cy="-332.79" r="42"/><circle class="st2" cx="-336.25" cy="-332.79" r="48.05"/><circle class="st2" cx="-432.35" cy="-332.79" r="42"/><circle class="st2" cx="-432.35" cy="-332.79" r="48.05"/><circle class="st2" cx="-528.45" cy="-332.79" r="42"/><circle class="st2" cx="-528.45" cy="-332.79" r="48.05"/><path class="st2" d="M682.87-332.95H-649.6"/></g><path class="st0" d="M576.93 582.9L-89.31-571.06M672.77 582.9L6.53-571.06M768.61 582.9L102.38-571.06M864.46 582.9L198.22-571.06M960.3 582.9L294.06-571.06M1056.15 582.9L389.91-571.06M1151.99 582.9L485.75-571.06M-96.23 582.9L570.01-571.06M480.82 582.9L-185.41-571.06m-6.92 1153.96L473.9-571.06M384.59 582.9L-281.64-571.06m-6.92 1153.96L377.67-571.06M288.56 582.9L-377.68-571.06M-384.6 582.9L281.64-571.06M192.46 582.9L-473.78-571.06M-480.7 582.9L185.54-571.06M96.35 582.9L-569.89-571.06m-6.92 1153.96L89.43-571.06M576.73 582.9l666.23-1153.96M480.62 582.9l666.24-1153.96M384.39 582.9l666.24-1153.96M288.36 582.9L954.6-571.06M192.25 582.9L858.49-571.06M96.15 582.9L762.39-571.06M.05 582.9L666.29-571.06M.31 582.9L-665.93-571.06m-6.92 1153.96L-6.61-571.06M-95.8 582.9L-762.03-571.06m-6.92 1153.96l666.23-1153.96M-191.9 582.9L-858.14-571.06m-6.92 1153.96l666.24-1153.96M-288 582.9L-954.24-571.06M-384.16 582.9L-1050.4-571.06M-480.21 582.9l-666.24-1153.96M799.67 249.85H-532.8"/></svg>