<svg width="176" height="64" fill="none" xmlns="http://www.w3.org/2000/svg"><path d="M47.883 22.971h-8.207v-3.883h21.002v3.883h-8.221v20.846h-4.574V22.97zm59.697-2.826a8.15 8.15 0 013.663 3.067 8.489 8.489 0 011.274 4.697 8.51 8.51 0 01-1.274 4.677 8.087 8.087 0 01-3.663 3.056 13.628 13.628 0 01-5.608 1.039h-5.58v7.136h-4.598v-24.73h10.178a13.734 13.734 0 015.608 1.058zm-1.255 11.393a4.412 4.412 0 001.559-3.64 4.41 4.41 0 00-1.559-3.64c-1.032-.844-2.552-1.268-4.559-1.272h-5.393v9.796h5.393c2.004.007 3.523-.408 4.559-1.244zm10.389-12.45h4.598v24.729h-4.598v-24.73zm28.307 19.003h-12.374l-2.451 5.726h-4.736l11.148-24.73h4.525l11.173 24.73h-4.809l-2.476-5.726zm-1.52-3.614L138.834 23.7l-4.633 10.776h9.3zm27.567 9.306l-5.055-7.21a9.32 9.32 0 01-.956.034h-5.588v7.21h-4.594v-24.73h10.182a13.736 13.736 0 015.604 1.058 8.176 8.176 0 013.662 3.067 8.487 8.487 0 011.27 4.697 8.38 8.38 0 01-1.363 4.804 8.098 8.098 0 01-3.922 3.003l5.692 8.1-4.932-.034zm-1.662-19.592c-1.039-.846-2.559-1.27-4.559-1.273h-5.393v9.908h5.393c2 0 3.52-.426 4.559-1.288a4.467 4.467 0 001.554-3.654 4.41 4.41 0 00-1.554-3.639v-.054zM68.144 42.525a12.104 12.104 0 01-4.775-4.555 12.494 12.494 0 01-1.735-6.519 12.48 12.48 0 011.735-6.514 12.148 12.148 0 014.775-4.56 15 15 0 0113.644 0 12.251 12.251 0 014.775 4.54 12.46 12.46 0 011.73 6.534 12.475 12.475 0 01-1.73 6.539 12.192 12.192 0 01-4.775 4.535 14.958 14.958 0 01-13.644 0zm11.276-3.497a8.066 8.066 0 003.089-3.08 8.903 8.903 0 001.132-4.472 8.897 8.897 0 00-1.132-4.467 8.08 8.08 0 00-3.089-3.135 9.48 9.48 0 00-8.908 0 8.047 8.047 0 00-3.113 3.11 8.898 8.898 0 00-1.132 4.467 8.902 8.902 0 001.108 4.497 8.037 8.037 0 003.113 3.105 9.48 9.48 0 008.908 0l.024-.025zm-45.857-.996a27.292 27.292 0 01-8.149-8.843 27.263 27.263 0 01-3.554-11.483l-.024-.372h-4.373l.03.431a31.516 31.516 0 004.131 13.611 31.548 31.548 0 009.698 10.413l.358.24.216-.372 1.784-3.096.187-.318-.304-.21z" fill="#008237"/><path d="M16.932 39.516a31.451 31.451 0 00-13.864 3.178l-.387.187.215.372 1.785 3.09.186.324.334-.162a27.475 27.475 0 0123.463 0l.333.162.187-.324 1.784-3.09.216-.372-.387-.187a31.45 31.45 0 00-13.865-3.178z" fill="#EF7D00"/><path d="M16.374 17.765l.03-.431H12.03l-.025.372A27.261 27.261 0 018.452 29.19a27.291 27.291 0 01-8.148 8.843l-.304.21.186.32 1.775 3.095.216.372.358-.24a31.548 31.548 0 009.703-10.412 31.516 31.516 0 004.136-13.612z" fill="#008237"/></svg>